<svg width="11" height="26" viewBox="0 0 11 26" fill="none" xmlns="http://www.w3.org/2000/svg">
<path d="M7.70225 24.7367C7.84769 25.1245 7.65118 25.5568 7.26334 25.7022C6.8755 25.8477 6.44319 25.6512 6.29775 25.2633L7.70225 24.7367ZM6.68965 0.317225C7.06673 0.145821 7.51137 0.312561 7.68278 0.689646L10.4759 6.83462C10.6473 7.21171 10.4806 7.65635 10.1035 7.82775C9.72644 7.99915 9.2818 7.83241 9.11039 7.45532L6.62758 1.99313L1.16538 4.47594C0.788292 4.64735 0.343654 4.48061 0.172251 4.10352C0.00084877 3.72643 0.167588 3.2818 0.544674 3.11039L6.68965 0.317225ZM6.29775 25.2633C3.33273 17.3566 3.33273 8.64339 6.29775 0.736656L7.70225 1.26334C4.86456 8.8305 4.86456 17.1695 7.70225 24.7367L6.29775 25.2633Z" fill="white"/>
</svg>
