<svg width="24" height="18" viewBox="0 0 24 18" fill="none" xmlns="http://www.w3.org/2000/svg">
<path d="M2.20735 0.499127C1.93229 0.189429 1.45825 0.161353 1.14855 0.436417C0.83885 0.711481 0.810774 1.18552 1.08584 1.49522L2.20735 0.499127ZM23.3289 12.7961C23.6565 12.5427 23.7167 12.0716 23.4632 11.744L19.3333 6.40484C19.0799 6.0772 18.6088 6.01705 18.2812 6.27048C17.9536 6.52391 17.8934 6.99496 18.1469 7.32259L21.8179 12.0685L17.072 15.7395C16.7444 15.993 16.6842 16.464 16.9376 16.7916C17.1911 17.1193 17.6621 17.1794 17.9898 16.926L23.3289 12.7961ZM1.08584 1.49522C6.69345 7.8089 14.3986 11.8771 22.775 12.9468L22.965 11.4589C14.9484 10.4351 7.57413 6.54164 2.20735 0.499127L1.08584 1.49522Z" fill="white"/>
</svg>
