<svg width="20" height="21" viewBox="0 0 20 21" fill="none" xmlns="http://www.w3.org/2000/svg">
<g id="&#226;&#154;&#160;&#239;&#184;&#143;" clip-path="url(#clip0_338_5326)">
<g id="Group 16">
<path id="Vector" d="M8.45887 3.88976L1.90805 15.2364C1.22308 16.4227 2.07942 17.9056 3.44937 17.9056H16.5515C17.9214 17.9056 18.7773 16.4227 18.0928 15.2364L11.5415 3.88976C10.8565 2.70341 9.14385 2.70341 8.45887 3.88976Z" fill="#EC4D3E"/>
<g id="Group">
<path id="Vector_2" d="M10.0001 13.7359C9.50863 13.7359 9.11035 14.1342 9.11035 14.6257C9.11035 15.1172 9.50863 15.5154 10.0001 15.5154C10.4916 15.5154 10.8899 15.1172 10.8899 14.6257C10.8899 14.1342 10.4916 13.7359 10.0001 13.7359Z" fill="white"/>
<path id="Vector_3" d="M10.0003 12.5736C9.58414 12.5736 9.24707 12.2365 9.24707 11.8203V8.11298C9.24707 7.69682 9.58414 7.35974 10.0003 7.35974C10.4165 7.35974 10.7535 7.69682 10.7535 8.11298V11.8203C10.7535 12.2365 10.4165 12.5736 10.0003 12.5736Z" fill="white"/>
</g>
</g>
</g>
<defs>
<clipPath id="clip0_338_5326">
<rect width="20" height="20" fill="white" transform="translate(0 0.5)"/>
</clipPath>
</defs>
</svg>
