<svg width="11" height="26" viewBox="0 0 11 26" fill="none" xmlns="http://www.w3.org/2000/svg">
<path d="M7.70225 1.26334C7.84769 0.875502 7.65118 0.443193 7.26334 0.297753C6.8755 0.152313 6.44319 0.348817 6.29775 0.736657L7.70225 1.26334ZM6.68965 25.6828C7.06673 25.8542 7.51137 25.6874 7.68278 25.3104L10.4759 19.1654C10.6473 18.7883 10.4806 18.3437 10.1035 18.1723C9.72644 18.0009 9.2818 18.1676 9.11039 18.5447L6.62758 24.0069L1.16538 21.5241C0.788292 21.3527 0.343654 21.5194 0.172251 21.8965C0.00084877 22.2736 0.167588 22.7182 0.544674 22.8896L6.68965 25.6828ZM6.29775 0.736657C3.33273 8.64339 3.33273 17.3566 6.29775 25.2633L7.70225 24.7367C4.86456 17.1695 4.86456 8.8305 7.70225 1.26334L6.29775 0.736657Z" fill="white"/>
</svg>
